HIERARCHY
ROOT Hips
{
	OFFSET 0.00 0.00 0.00
	CHANNELS 6 Xposition Yposition Zposition Yrotation Xrotation Zrotation
	JOINT LHipJoint
	{
		OFFSET	0.0000	0.0000	0.0000
		CHANNELS 3 Yrotation Xrotation Zrotation
		JOINT LeftUpLeg
		{
			OFFSET	1.0138	-0.0809	-0.0827
			CHANNELS 3 Yrotation Xrotation Zrotation
			JOINT LeftLeg
			{
				OFFSET	0.4110	-3.9095	0.3245
				CHANNELS 3 Yrotation Xrotation Zrotation
				JOINT LeftFoot
				{
					OFFSET	0.3810	-4.0555	-0.1470
					CHANNELS 3 Yrotation Xrotation Zrotation
					JOINT LeftToeBase
					{
						OFFSET	0.1396	-0.4462	1.3079
						CHANNELS 3 Yrotation Xrotation Zrotation
						End Site
						{
							OFFSET 0.0161 -0.0248 0.1809
						}
					}
				}
			}
		}
	}
	JOINT LowerBack
	{
		OFFSET	0.0000	0.7977	-0.3873
		CHANNELS 3 Yrotation Xrotation Zrotation
		JOINT Spine
		{
			OFFSET	0.0000	1.4131	0.1715
			CHANNELS 3 Yrotation Xrotation Zrotation
			JOINT Spine1
			{
				OFFSET	0.0000	1.4392	-0.1032
				CHANNELS 3 Yrotation Xrotation Zrotation
				JOINT LeftShoulder
				{
					OFFSET	0.2274	1.0382	0.4032
					CHANNELS 3 Yrotation Xrotation Zrotation
					JOINT LeftArm
					{
						OFFSET	1.4730	-0.2267	-0.0231
						CHANNELS 3 Yrotation Xrotation Zrotation
						JOINT LeftForeArm
						{
							OFFSET	1.6131	-1.8059	0.0081
							CHANNELS 3 Yrotation Xrotation Zrotation
							JOINT LeftHand
							{
								OFFSET	1.2197	-1.2423	1.6317
								CHANNELS 3 Yrotation Xrotation Zrotation
								JOINT LThumb
								{
									OFFSET	0.0109	-0.0753	0.4387
									CHANNELS 3 Yrotation Xrotation Zrotation
									End Site
									{
										OFFSET -0.2090 -0.0868 0.2097
									}
								}
								JOINT LeftFingerBase
								{
									OFFSET	0.1071	-0.1567	0.2607
									CHANNELS 3 Yrotation Xrotation Zrotation
									JOINT LeftHandFinger1
									{
										OFFSET	0.1706	-0.2492	0.6830
										CHANNELS 3 Yrotation Xrotation Zrotation
										End Site
										{
											OFFSET 0.0335 -0.1507 0.2071
										}
									}
								}
							}
						}
					}
				}
				JOINT Neck
				{
					OFFSET	0.0000	1.7498	0.2381
					CHANNELS 3 Yrotation Xrotation Zrotation
					JOINT Neck1
					{
						OFFSET	0.0000	0.5043	0.1959
						CHANNELS 3 Yrotation Xrotation Zrotation
						JOINT Head
						{
							OFFSET	0.0000	0.5044	0.1959
							CHANNELS 3 Yrotation Xrotation Zrotation
							End Site
							{
								OFFSET 0.0000 1.4798 -0.0693
							}
						}
					}
				}
				JOINT RightShoulder
				{
					OFFSET	-0.2274	1.0382	0.4032
					CHANNELS 3 Yrotation Xrotation Zrotation
					JOINT RightArm
					{
						OFFSET	-1.4730	-0.2267	-0.0231
						CHANNELS 3 Yrotation Xrotation Zrotation
						JOINT RightForeArm
						{
							OFFSET	-1.6131	-1.8059	0.0081
							CHANNELS 3 Yrotation Xrotation Zrotation
							JOINT RightHand
							{
								OFFSET	-1.2197	-1.2423	1.6317
								CHANNELS 3 Yrotation Xrotation Zrotation
								JOINT RThumb
								{
									OFFSET	-0.0109	-0.0753	0.4387
									CHANNELS 3 Yrotation Xrotation Zrotation
									End Site
									{
										OFFSET 0.2090 -0.0868 0.2097
									}
								}
								JOINT RightFingerBase
								{
									OFFSET	-0.1071	-0.1567	0.2607
									CHANNELS 3 Yrotation Xrotation Zrotation
									JOINT RightHandFinger1
									{
										OFFSET	-0.1706	-0.2492	0.6830
										CHANNELS 3 Yrotation Xrotation Zrotation
										End Site
										{
											OFFSET -0.0335 -0.1507 0.2071
										}
									}
								}
							}
						}
					}
				}
			}
		}
	}
	JOINT RHipJoint
	{
		OFFSET	0.0000	0.0000	0.0000
		CHANNELS 3 Yrotation Xrotation Zrotation
		JOINT RightUpLeg
		{
			OFFSET	-1.0138	-0.0809	-0.0827
			CHANNELS 3 Yrotation Xrotation Zrotation
			JOINT RightLeg
			{
				OFFSET	-0.4110	-3.9095	0.3245
				CHANNELS 3 Yrotation Xrotation Zrotation
				JOINT RightFoot
				{
					OFFSET	-0.3810	-4.0555	-0.1470
					CHANNELS 3 Yrotation Xrotation Zrotation
					JOINT RightToeBase
					{
						OFFSET	-0.1396	-0.4462	1.3079
						CHANNELS 3 Yrotation Xrotation Zrotation
						End Site
						{
							OFFSET -0.0161 -0.0248 0.1809
						}
					}
				}
			}
		}
	}
}
MOTION
Frames: 13
Frame Time: 0.0333333
0.0174 8.6840 0.1062 -5.2339 -3.7377 -3.1923 0.0000 -0.0000 0.0000 15.4950 -7.5711 1.6790 3.2750 12.7359 4.7472 0.5398 -2.4486 -1.6438 0.0000 -4.9285 0.0000 0.0000 -0.0000 0.0000 0.7253 1.8699 2.0194 1.5140 3.7200 3.6997 -17.4448 1.0012 -3.2145 -20.3141 0.6119 -31.7231 29.9308 30.2124 5.9893 23.2305 -3.4875 -25.4881 25.5061 -2.3862 12.1143 1.0278 13.6874 -4.0226 -6.4591 -3.9011 -2.4958 -0.0793 5.6263 0.4469 -0.1004 5.6215 0.4821 1.6280 -13.1676 -0.9079 15.3469 1.1603 5.6049 29.4912 7.2723 25.0816 -25.4577 26.7561 -3.9255 -16.5352 1.6761 15.2302 -24.4738 -3.2534 -10.2851 -1.4001 13.0337 3.5913 6.6909 -4.1731 2.5452 0.0000 -0.0000 0.0000 -10.2291 5.0624 8.7537 -10.2980 4.6929 -4.1916 -1.1514 -6.6270 -1.7381 0.0000 -7.2829 -0.0000 
0.0171 8.6756 0.1076 -5.2193 -3.8034 -2.9101 0.0000 -0.0000 0.0000 15.5134 -7.5518 1.4176 3.2864 12.9832 4.7690 0.5433 -2.5760 -1.6533 -0.0000 -4.9299 0.0000 0.0000 -0.0000 0.0000 0.6562 1.9560 1.8705 1.3724 3.8938 3.5129 -16.8884 0.9348 -3.4167 -20.4086 0.3141 -31.1351 29.8576 30.1588 5.9536 22.5832 -3.2710 -24.5605 25.5061 -2.3861 12.1143 0.9656 13.7459 -4.0808 -6.6821 -3.6602 -2.6755 -0.0343 5.3998 0.4652 -0.0543 5.3965 0.4992 2.0417 -13.2832 -1.1475 15.3157 1.1090 5.7914 28.0937 6.8632 24.7329 -25.4306 26.7340 -3.9138 -15.8180 2.2048 14.1490 -24.4738 -3.2534 -10.2851 -1.4000 13.0337 3.5913 6.6909 -4.1731 2.5452 0.0000 -0.0000 0.0000 -10.2405 4.2873 8.4637 -10.5795 6.2323 -4.4879 -1.1036 -7.4059 -1.5784 -0.0000 -7.2902 0.0000 
0.0166 8.6685 0.1092 -5.1940 -3.8729 -2.6353 0.0000 -0.0000 0.0000 15.5435 -7.4921 1.1654 3.2805 13.1530 4.7802 0.5372 -2.6647 -1.6573 0.0000 -4.9282 -0.0000 0.0000 -0.0000 0.0000 0.5803 2.0512 1.7344 1.2179 4.0865 3.3157 -16.2962 0.8706 -3.6270 -20.5110 -0.0058 -30.5174 29.7790 30.1011 5.9153 21.8991 -3.0548 -23.5959 25.5061 -2.3861 12.1143 0.7873 13.9126 -4.2476 -7.3236 -2.9756 -3.1942 0.0119 5.1673 0.4852 -0.0063 5.1683 0.5185 2.4607 -13.4340 -1.4070 15.2824 1.0554 5.9874 26.6425 6.4149 24.3716 -25.4203 26.7257 -3.9093 -15.0658 2.7650 13.0438 -24.4738 -3.2534 -10.2851 -1.4001 13.0337 3.5913 6.6909 -4.1731 2.5452 0.0000 -0.0000 0.0000 -10.2381 3.6744 8.1856 -10.8352 7.4728 -4.7455 -1.0681 -8.0416 -1.4403 0.0000 -7.2852 0.0000 
0.0161 8.6616 0.1111 -5.1675 -3.9352 -2.3525 0.0000 -0.0000 0.0000 15.5770 -7.4230 0.9047 3.2717 13.2974 4.7886 0.5290 -2.7422 -1.6607 0.0000 -4.9331 0.0000 0.0000 -0.0000 0.0000 0.5024 2.1502 1.5941 1.0587 4.2871 3.1061 -15.6751 0.8099 -3.8420 -20.6410 -0.3169 -29.8699 29.6790 30.0275 5.8668 21.1916 -2.8142 -22.6140 25.5061 -2.3861 12.1143 0.5051 14.1745 -4.5119 -8.3463 -1.9087 -4.0265 0.0604 4.9342 0.5096 0.0446 4.9419 0.5422 2.9005 -13.6463 -1.6561 15.2504 0.9997 6.1897 25.1301 5.9190 24.0081 -25.4372 26.7395 -3.9167 -14.2719 3.3447 11.8904 -24.4738 -3.2534 -10.2851 -1.4001 13.0337 3.5913 6.6909 -4.1731 2.5452 0.0000 -0.0000 0.0000 -10.2252 3.1097 7.9038 -10.9905 8.6233 -4.9766 -1.1322 -8.6363 -1.3117 -0.0000 -7.2710 -0.0000 
0.0157 8.6547 0.1134 -5.1621 -3.9807 -2.0555 0.0000 -0.0000 0.0000 15.6113 -7.3474 0.6264 3.2562 13.4217 4.7962 0.5486 -2.8170 -1.6677 0.0000 -4.9502 -0.0000 0.0000 -0.0000 0.0000 0.4336 2.2448 1.4471 0.9167 4.4782 2.8868 -15.0331 0.7507 -4.0683 -20.7876 -0.6194 -29.1954 29.5767 29.9521 5.8172 20.4580 -2.5409 -21.6210 25.5061 -2.3861 12.1143 0.1311 14.5180 -4.8626 -9.7174 -0.5254 -5.1521 0.1104 4.7063 0.5357 0.0978 4.7235 0.5681 3.3667 -13.8859 -1.8847 15.2170 0.9420 6.3991 23.5477 5.3890 23.6564 -25.4603 26.7582 -3.9267 -13.4498 3.9526 10.6892 -24.4738 -3.2534 -10.2851 -1.4000 13.0337 3.5913 6.6909 -4.1731 2.5452 0.0000 -0.0000 0.0000 -10.2127 2.5524 7.5943 -11.1416 9.7282 -5.1749 -1.1695 -9.2053 -1.2007 0.0000 -7.2706 -0.0000 
0.0155 8.6486 0.1163 -5.1925 -4.0108 -1.7586 0.0000 -0.0000 0.0000 15.6592 -7.2477 0.3456 3.2229 13.4938 4.7991 0.6061 -2.8768 -1.6780 0.0000 -4.9630 -0.0000 0.0000 -0.0000 0.0000 0.3767 2.3310 1.3077 0.7984 4.6525 2.6738 -14.3636 0.6902 -4.3236 -20.9090 -0.9504 -28.5050 29.5134 29.9053 5.7866 19.6911 -2.2571 -20.5821 25.5061 -2.3861 12.1143 -0.3233 14.9296 -5.2892 -11.4064 1.1055 -6.5529 0.1583 4.4864 0.5574 0.1494 4.5155 0.5898 3.8295 -14.0851 -2.1277 15.1842 0.8827 6.6135 21.9137 4.8526 23.3158 -25.4658 26.7627 -3.9290 -12.5987 4.6194 9.4732 -24.4738 -3.2534 -10.2851 -1.4001 13.0337 3.5913 6.6909 -4.1731 2.5452 0.0000 -0.0000 0.0000 -10.2103 2.0350 7.2617 -11.2831 10.7291 -5.3172 -1.1471 -9.7156 -1.1226 -0.0000 -7.2784 -0.0000 
0.0157 8.6433 0.1194 -5.2775 -4.0227 -1.4577 0.0000 -0.0000 0.0000 15.7363 -7.1253 0.0576 3.1802 13.5094 4.7989 0.6960 -2.9188 -1.6907 0.0000 -4.9817 0.0000 0.0000 -0.0000 0.0000 0.3250 2.4064 1.1735 0.6902 4.8049 2.4665 -13.6643 0.6307 -4.6068 -20.9715 -1.2800 -27.8195 29.4362 29.8482 5.7494 18.9101 -1.9532 -19.4624 25.5061 -2.3861 12.1143 -0.8461 15.3957 -5.7808 -13.3836 2.9142 -8.2108 0.2053 4.2788 0.5730 0.2006 4.3220 0.6056 4.2929 -14.2389 -2.4141 15.1497 0.8222 6.8344 20.2533 4.3017 22.9712 -25.4568 26.7553 -3.9251 -11.6999 5.3588 8.2293 -24.4738 -3.2534 -10.2851 -1.4001 13.0336 3.5913 6.6909 -4.1731 2.5452 0.0000 -0.0000 0.0000 -10.2020 1.5441 6.9063 -11.4062 11.6347 -5.4076 -1.0708 -10.1742 -1.0774 -0.0000 -7.2731 0.0000 
0.0170 8.6381 0.1220 -5.5009 -4.0141 -1.0997 0.0000 -0.0000 0.0000 15.8573 -6.9448 -0.2885 3.1366 13.4511 4.8010 0.8855 -2.9465 -1.7146 0.0000 -5.0319 -0.0000 0.0000 -0.0000 0.0000 0.2856 2.4701 1.0145 0.6052 4.9335 2.2145 -12.9513 0.5745 -4.9054 -20.9818 -1.4178 -27.1161 29.0427 29.5552 5.5605 18.1652 -1.5334 -18.3458 25.5061 -2.3861 12.1143 -1.4255 15.9028 -6.3265 -15.6178 4.8311 -10.1052 0.2626 4.0953 0.5939 0.2626 4.1547 0.6266 4.8914 -14.3656 -2.7817 15.1053 0.7606 7.0673 18.5751 3.6916 22.6316 -25.4372 26.7394 -3.9166 -10.7729 6.1368 6.9369 -24.4738 -3.2534 -10.2851 -1.4001 13.0337 3.5913 6.6909 -4.1731 2.5452 0.0000 -0.0000 0.0000 -10.1639 0.9768 6.4643 -11.4252 12.6167 -5.4313 -0.9810 -10.6457 -1.0737 -0.0000 -7.2589 0.0000 
0.0197 8.6328 0.1251 -5.9691 -4.0222 -0.6703 0.0000 -0.0000 0.0000 16.0243 -6.6350 -0.6908 3.0815 13.3183 4.8094 1.2898 -2.9851 -1.7686 -0.0000 -5.1068 -0.0000 0.0000 -0.0000 0.0000 0.2669 2.5295 0.8221 0.5596 5.0533 1.8950 -12.2300 0.5253 -5.2050 -21.0413 -1.1432 -26.3492 27.9631 28.7369 5.0517 17.6100 -0.9656 -17.4563 25.5061 -2.3861 12.1143 -2.0491 16.4379 -6.9149 -18.0745 6.7888 -12.2111 0.3259 3.9496 0.6275 0.3313 4.0273 0.6602 5.5671 -14.3313 -3.1101 15.0478 0.6984 7.3144 16.8615 3.0396 22.3514 -25.2957 26.6241 -3.8554 -9.9019 6.9403 5.6389 -24.4738 -3.2534 -10.2851 -1.4001 13.0337 3.5913 6.6909 -4.1731 2.5452 0.0000 -0.0000 0.0000 -10.0894 0.3422 5.8874 -11.1461 13.7379 -5.3026 -0.9551 -11.1434 -1.1473 -0.0000 -7.2428 -0.0000 
0.0237 8.6284 0.1306 -6.6364 -4.1027 -0.2561 0.0000 -0.0000 0.0000 16.2166 -6.1950 -1.0460 3.0242 13.1811 4.8250 1.8651 -3.0754 -1.8533 0.0000 -5.1823 0.0000 0.0000 -0.0000 0.0000 0.2239 2.5864 0.6327 0.4649 5.1685 1.5702 -11.4925 0.4921 -5.4625 -21.5151 -0.3287 -25.5376 26.2213 27.3719 4.2605 17.4323 -0.5703 -16.7173 25.5061 -2.3861 12.1143 -2.7043 16.9880 -7.5340 -20.7140 8.7240 -14.4969 0.3268 3.8509 0.6654 0.3389 3.9497 0.6994 5.4545 -13.8436 -2.9177 14.9901 0.6353 7.5640 15.0959 2.5660 22.2453 -24.6833 26.1207 -3.5935 -9.2739 7.8671 4.4737 -24.4738 -3.2534 -10.2851 -1.4000 13.0337 3.5913 6.6909 -4.1731 2.5452 0.0000 -0.0000 0.0000 -9.9892 -0.1716 5.2559 -10.6403 14.7902 -5.0071 -0.9230 -11.5859 -1.3018 0.0000 -7.2350 0.0000 
0.0284 8.6246 0.1402 -7.3160 -4.2600 0.0679 0.0000 -0.0000 0.0000 16.3936 -5.7318 -1.2879 2.9970 13.1579 4.8501 2.4309 -3.2526 -1.9481 0.0000 -5.2365 -0.0000 0.0000 -0.0000 0.0000 0.0699 2.6227 0.4640 0.1478 5.2443 1.2629 -10.7577 0.4799 -5.6366 -23.0589 1.2981 -24.6705 23.8348 25.4121 3.2389 17.9024 -0.6662 -15.6129 25.5062 -2.3861 12.1143 -3.3776 17.5408 -8.1713 -23.4891 10.5793 -16.9227 0.1578 3.8183 0.7266 0.1780 3.9414 0.7655 3.2735 -12.7913 -1.7881 14.9291 0.5724 7.8184 13.3456 2.5283 22.3791 -23.3672 25.0160 -3.0476 -8.9799 8.9842 3.6574 -24.4738 -3.2534 -10.2851 -1.4001 13.0337 3.5913 6.6909 -4.1731 2.5452 0.0000 -0.0000 0.0000 -9.8796 -0.4657 4.6850 -10.0795 15.6417 -4.6440 -0.8953 -11.9498 -1.4706 -0.0000 -7.2421 0.0000 
0.0345 8.6206 0.1535 -7.9499 -4.4598 0.3376 0.0000 -0.0000 0.0000 16.5407 -5.2844 -1.4745 2.9959 13.2565 4.8828 2.9561 -3.5105 -2.0398 0.0000 -5.2725 0.0000 0.0000 -0.0000 0.0000 -0.2245 2.6318 0.2772 -0.4527 5.2668 0.8996 -10.0572 0.4820 -5.7297 -26.4791 4.0012 -23.5935 21.0750 23.0178 2.1539 19.4201 -1.5494 -14.6137 25.5061 -2.3861 12.1143 -4.0551 18.0845 -8.8136 -26.3443 12.3058 -19.4394 -0.2365 3.8556 0.8526 -0.2060 4.0073 0.9010 -1.4818 -11.1832 0.1653 14.8222 0.5099 8.1110 11.6769 2.8569 22.6561 -21.6199 23.5013 -2.3596 -8.8257 10.2048 3.1863 -24.4738 -3.2534 -10.2851 -1.4001 13.0337 3.5913 6.6909 -4.1732 2.5451 0.0000 -0.0000 0.0000 -9.7758 -0.6312 4.1508 -9.5361 16.3860 -4.2758 -0.8691 -12.2870 -1.6144 0.0000 -7.2453 -0.0000 
0.0444 8.6168 0.1715 -8.6565 -4.7307 0.6338 0.0000 -0.0000 0.0000 16.6658 -4.7076 -1.6866 3.0013 13.3598 4.9229 3.5743 -3.8226 -2.1345 0.0000 -5.3001 -0.0000 0.0000 -0.0000 0.0000 -0.6315 2.6383 0.0401 -1.2818 5.2831 0.4283 -9.3860 0.4926 -5.7671 -31.5867 7.4299 -22.3420 18.4575 20.6236 1.2271 22.2107 -3.3451 -14.9288 25.5061 -2.3861 12.1143 -4.7222 18.6076 -9.4470 -29.2149 13.8645 -21.9879 -0.8103 3.9183 1.0495 -0.7674 4.1026 1.1103 -8.1023 -8.6000 2.2857 14.6654 0.4490 8.4436 10.0494 3.3675 22.9785 -19.7673 21.8363 -1.6780 -8.6737 11.4406 2.8657 -24.4738 -3.2534 -10.2851 -1.4001 13.0337 3.5913 6.6909 -4.1731 2.5452 0.0000 -0.0000 0.0000 -9.7276 -0.7175 3.5041 -8.8324 17.1478 -3.7926 -0.8349 -12.6356 -1.7806 -0.0000 -7.2414 0.0000 
